<svg width="20" height="20" viewBox="0 0 20 20" fill="none" xmlns="http://www.w3.org/2000/svg">
<path d="M9.99998 11.6667V13.3334C7.23855 13.3334 4.99998 15.572 4.99998 18.3334H3.33331C3.33331 14.6515 6.31808 11.6667 9.99998 11.6667ZM9.99998 10.8334C7.23748 10.8334 4.99998 8.59587 4.99998 5.83337C4.99998 3.07087 7.23748 0.833374 9.99998 0.833374C12.7625 0.833374 15 3.07087 15 5.83337C15 8.59587 12.7625 10.8334 9.99998 10.8334ZM9.99998 9.16671C11.8416 9.16671 13.3333 7.67504 13.3333 5.83337C13.3333 3.99171 11.8416 2.50004 9.99998 2.50004C8.15831 2.50004 6.66665 3.99171 6.66665 5.83337C6.66665 7.67504 8.15831 9.16671 9.99998 9.16671ZM17.357 17.5593L15 20L12.643 17.5593C11.3412 16.2113 11.3412 14.0257 12.643 12.6777C13.9447 11.3297 16.0552 11.3297 17.357 12.6777C18.6587 14.0257 18.6587 16.2113 17.357 17.5593ZM16.1581 16.4015C16.8361 15.6994 16.8361 14.5376 16.1581 13.8355C15.5116 13.166 14.4883 13.166 13.8419 13.8355C13.1638 14.5376 13.1638 15.6994 13.8419 16.4015L15 17.6008L16.1581 16.4015Z" fill="#525251"/>
</svg>
