<svg width="24" height="24" viewBox="0 0 24 24" fill="none" xmlns="http://www.w3.org/2000/svg">
<path d="M5.72521 20.85C5.29161 20.85 4.92061 20.6958 4.61221 20.3874C4.30421 20.079 4.15021 19.7082 4.15021 19.275V9.8502C4.15021 9.6002 4.20441 9.3626 4.31281 9.1374C4.42081 8.9126 4.57481 8.7252 4.77481 8.5752L11.0502 3.8748C11.2002 3.7748 11.3544 3.6998 11.5128 3.6498C11.6708 3.5998 11.8332 3.5748 12 3.5748C12.1668 3.5748 12.3292 3.5998 12.4872 3.6498C12.6456 3.6998 12.7998 3.7748 12.9498 3.8748L19.2252 8.5752C19.4252 8.7252 19.5792 8.9126 19.6872 9.1374C19.7956 9.3626 19.8498 9.6002 19.8498 9.8502V19.275C19.8498 19.7082 19.6956 20.079 19.3872 20.3874C19.0792 20.6958 18.7084 20.85 18.2748 20.85H14.0502V13.9248H9.97501V20.85H5.72521Z" fill="#7D23E0"/>
</svg>
