<svg width="16" height="16" viewBox="0 0 16 16" fill="none" xmlns="http://www.w3.org/2000/svg">
<path d="M4.25356 5.78691C4.39607 5.66662 4.55598 5.6037 4.73328 5.59815C4.91058 5.59259 5.06493 5.65551 5.19633 5.78691L8.01661 8.6072L10.8536 5.77025C10.9739 5.64996 11.131 5.59259 11.3249 5.59815C11.5189 5.6037 11.676 5.66662 11.7963 5.78691C11.9388 5.92942 12.0073 6.08655 12.0018 6.2583C11.9962 6.43004 11.9277 6.58161 11.7963 6.71301L8.47966 10.0297C8.41154 10.0978 8.33871 10.1477 8.26118 10.1793C8.18365 10.211 8.10212 10.2268 8.01661 10.2268C7.9311 10.2268 7.84958 10.211 7.77205 10.1793C7.69451 10.1477 7.62169 10.0978 7.55356 10.0297L4.25356 6.72968C4.12216 6.59828 4.05924 6.44393 4.0648 6.26663C4.07035 6.08933 4.13327 5.92942 4.25356 5.78691Z" fill="#7D23E0"/>
</svg>
